<svg width="57" height="24" viewBox="0 0 57 24" fill="none" xmlns="http://www.w3.org/2000/svg">
<g clip-path="url(#clip0_1_342)">
<path d="M55.375 7.96942V17.8539H52.0387V10.9201H48.8262V17.8539H45.4899V7.96875H55.375V7.96942Z" fill="#59A7FF"/>
<path fill-rule="evenodd" clip-rule="evenodd" d="M37.9262 17.8547C41.2353 17.8547 43.6926 16.0055 43.6926 13.202C43.6926 10.4885 41.8796 8.72673 38.8496 8.72673C37.4512 8.72673 36.2974 9.17538 35.4283 9.9495C35.6357 8.34948 37.1202 7.18139 38.7547 7.18139C39.1319 7.18139 41.9717 7.17592 41.9717 7.17592L43.5775 4.375C43.5775 4.375 40.0122 4.44897 38.3549 4.44897C34.568 4.50911 32.0101 7.64644 32.0101 11.4569C32.0101 15.8961 34.5048 17.8547 37.9262 17.8547ZM37.9463 11.2076C39.1749 11.2076 40.0267 11.9435 40.0267 13.2016C40.0267 14.334 39.2698 15.267 37.9463 15.2696C36.6802 15.2696 35.8284 14.4051 35.8284 13.2209C35.8284 11.9625 36.6802 11.2076 37.9463 11.2076Z" fill="#59A7FF"/>
<path d="M29.6999 14.735C29.6999 14.735 28.904 15.1834 27.7154 15.2683C26.3488 15.3079 25.1312 14.4642 25.1312 12.9652C25.1312 11.503 26.2057 10.6649 27.681 10.6649C28.5856 10.6649 29.7822 11.2778 29.7822 11.2778C29.7822 11.2778 30.6579 9.70708 31.1115 8.92156C30.2809 8.30617 29.1746 7.96875 27.8878 7.96875C24.6403 7.96875 22.125 10.0385 22.125 12.9467C22.125 15.8919 24.4891 17.9135 27.8878 17.8525C28.8378 17.818 30.1483 17.4919 30.9471 16.9903L29.6999 14.735Z" fill="#59A7FF"/>
<path d="M0.25 5.17969L3.1017 10.3292V13.4703L0.253336 18.6098L0.25 5.17969Z" fill="#59A7FF"/>
<path d="M11.1993 8.45663L13.8715 6.80203L19.3402 6.79688L11.1993 11.8352V8.45663Z" fill="#59A7FF"/>
<path d="M11.1842 5.14797L11.1993 11.9658L8.34094 10.1915V0L11.1844 5.14797H11.1842Z" fill="#59A7FF"/>
<path d="M19.3402 6.79424L13.8713 6.79939L11.1842 5.14797L8.34094 0L19.34 6.79424H19.3402Z" fill="#59A7FF"/>
<path d="M11.1993 18.6383V15.3305L8.34094 13.5898L8.34251 23.7914L11.1993 18.6383Z" fill="#59A7FF"/>
<path d="M13.8648 16.9988L3.1015 10.3292L0.25 5.17969L19.3286 16.992L13.8646 16.9988H13.8648Z" fill="#59A7FF"/>
<path d="M8.34277 23.7916L11.1992 18.6385L13.8647 16.9989L19.3284 16.9922L8.34277 23.7916Z" fill="#59A7FF"/>
<path d="M0.253296 18.6084L8.36431 13.5887L5.63742 11.8984L3.10166 13.469L0.253296 18.6084Z" fill="#59A7FF"/>
</g>
<defs>
<clipPath id="clip0_1_342">
<rect width="56" height="24" fill="white" transform="translate(0.25)"/>
</clipPath>
</defs>
</svg>
